<svg width="32" height="20" viewBox="0 0 32 20" fill="none" xmlns="http://www.w3.org/2000/svg">
<g clip-path="url(#clip0_2375_19720)">
<path d="M20.3269 17.8618H11.6738V2.13818H20.3269V17.8618Z" fill="#EB6A2C"/>
<path d="M12.2223 9.99946C12.2223 6.80981 13.6987 3.96918 15.9995 2.13709C14.2584 0.749804 12.1047 -0.00329224 9.88778 1.08191e-05C4.42723 1.08191e-05 0 4.47675 0 9.99946C0 15.5222 4.42723 19.9989 9.88778 19.9989C12.1047 20.0022 14.2584 19.2491 15.9995 17.8607C13.6998 16.0297 12.2223 13.1891 12.2223 9.99836" fill="#D72E2B"/>
<path d="M32.0004 9.99946C32.0004 15.5222 27.5732 19.9989 22.1127 19.9989C19.8958 20.0022 17.742 19.2491 16.001 17.8607C18.3017 16.0297 19.7782 13.1891 19.7782 9.99836C19.7782 6.80761 18.3017 3.96808 16.001 2.13599C17.7409 0.749804 19.8947 -0.00329224 22.1116 1.08192e-05C27.5732 1.08192e-05 31.9993 4.47675 31.9993 9.99946" fill="#E9A140"/>
</g>
<defs>
<clipPath id="clip0_2375_19720">
<rect width="32" height="20" fill="white"/>
</clipPath>
</defs>
</svg>
