<svg width="41" height="12" viewBox="0 0 41 12" fill="none" xmlns="http://www.w3.org/2000/svg">
<path d="M11.0483 2.34305e-07V0.00528611C11.0483 0.00528611 9.44604 2.0164e-07 9.02067 1.57731C8.63007 3.02352 7.52984 7.01647 7.50019 7.12642H7.1965C7.1965 7.12642 6.0707 3.04467 5.67601 1.57202C5.2486 -0.0052857 3.64631 2.34305e-07 3.64631 2.34305e-07H0V12H3.64835V4.87252H3.95204L6.08093 11.9989H8.61371L10.7426 4.87781H11.0463V12H14.6946V2.34305e-07H11.0463H11.0483ZM24.3769 2.34305e-07C24.3769 2.34305e-07 23.3073 0.0993747 22.8053 1.25804L20.2214 7.12642H19.9177V2.34305e-07H16.2693V12H19.7152C19.7152 12 20.8359 11.8953 21.338 10.742L23.8707 4.87358H24.1744V12H27.8228V2.34305e-07H24.3769ZM29.4445 5.44974V12H33.0928V8.17514H37.0459C38.7699 8.17514 40.228 7.03762 40.7699 5.4508H29.4445V5.44868V5.44974Z" fill="white"/>
<path d="M37.0483 0H28.9336C29.3395 2.28561 30.997 4.1177 33.1392 4.71606C33.6372 4.85561 34.1495 4.92538 34.6648 4.92538H40.9196C40.9758 4.65263 41.0004 4.37459 41.0004 4.08704C41.0004 1.82891 39.2314 0 37.0483 0Z" fill="white"/>
</svg>
