<svg width="16" height="26" viewBox="0 0 16 26" fill="none" xmlns="http://www.w3.org/2000/svg">
<path d="M10.1019 25.5022C9.78319 25.5022 9.48298 25.3777 9.25667 25.153C8.81559 24.7126 8.78442 24.0186 9.18393 23.5379C14.1847 17.5192 14.1547 8.80751 9.11349 2.82337C8.70936 2.3438 8.73592 1.65098 9.17469 1.2083L9.18162 1.20139C9.41024 0.973134 9.71276 0.848633 10.0349 0.848633C10.3859 0.848633 10.715 1.0008 10.939 1.26594C16.7411 8.13543 16.7827 18.144 11.0383 25.0619C10.8051 25.342 10.4644 25.5034 10.1019 25.5034V25.5022Z" fill="white"/>
<path d="M5.79648 21.2047C5.4778 21.2047 5.17875 21.0802 4.95359 20.8554C4.53445 20.437 4.48364 19.7672 4.83697 19.2969C7.55156 15.6829 7.525 10.6532 4.77231 7.06805C4.40974 6.59541 4.45593 5.92103 4.87969 5.49795C5.10831 5.2697 5.41199 5.14404 5.73414 5.14404C6.10593 5.14404 6.44771 5.3112 6.67172 5.6017C10.0756 10.0284 10.1172 16.2431 6.77217 20.7148C6.53893 21.0261 6.18329 21.2047 5.79648 21.2047Z" fill="white"/>
<path d="M1.43492 16.8771C1.13471 16.8771 0.850662 16.7595 0.635897 16.5451L0.546988 16.4551C0.194818 16.1035 0.117456 15.5606 0.354161 15.1041C0.985757 13.8833 0.963818 12.4365 0.296428 11.2353C0.0516411 10.7949 0.138241 10.2301 0.506576 9.86233L0.578164 9.79085C0.794084 9.57528 1.08159 9.45654 1.38758 9.45654C1.80094 9.45654 2.16697 9.6675 2.36788 10.0214C3.4521 11.9304 3.48559 14.3213 2.45679 16.2615C2.25588 16.6407 1.86445 16.8771 1.43723 16.8771H1.43492Z" fill="white"/>
</svg>
