<?xml version="1.0" encoding="utf-8"?><svg width="176" height="114" viewBox="0 0 176 114" xmlns="http://www.w3.org/2000/svg" xmlns:xlink="http://www.w3.org/1999/xlink"><svg width="64" height="59" fill="none" viewBox="0 0 64 59" id="pm-1" xmlns="http://www.w3.org/2000/svg"><path d="M38.318 57.317 19.893 34.284 1 57.48" stroke="#106AC6" stroke-width="1.4" stroke-linecap="round" stroke-linejoin="round"/><path d="m27.133 43.337 17.18-19.844 18.81 22.427M14.826 21.538a6.521 6.521 0 1 0 0-13.042 6.521 6.521 0 0 0 0 13.042ZM14.828 1.59v3.758M6.195 4.732 8.612 7.61M1.602 12.685l3.7.654M3.195 21.73l3.255-1.879M10.234 27.635l1.286-3.532M19.418 27.635l-1.285-3.532M26.45 21.73l-3.255-1.879M28.044 12.685l-3.7.654M23.454 4.732 21.04 7.61M6.836 50.312l9.315-4.716 3.933 5.298 2.162-5.413 5.8 4.2 1.155-3.76" stroke="#106AC6" stroke-width="1.4" stroke-linecap="round" stroke-linejoin="round"/><path d="m30.945 39.388 9.315-4.718 3.933 5.3 2.162-5.412 5.8 4.197 1.153-3.758" stroke="#106AC6" stroke-width="1.4" stroke-linecap="round" stroke-linejoin="round"/></svg><svg width="53" height="47" fill="none" viewBox="0 0 53 47" id="pm-2" x="123" xmlns="http://www.w3.org/2000/svg"><mask id="ba" fill="#fff"><path d="M37.053 17.685H52.21v28.631H0V17.685h15.158"/></mask><path d="M52.21 17.685h1.4v-1.4h-1.4v1.4Zm0 28.631v1.4h1.4v-1.4h-1.4Zm-52.21 0h-1.4v1.4H0v-1.4Zm0-28.631v-1.4h-1.4v1.4H0Zm37.053 1.4H52.21v-2.8H37.053v2.8Zm13.758-1.4v28.631h2.8V17.685h-2.8Zm1.4 27.231H0v2.8h52.21v-2.8ZM1.4 46.316V17.685h-2.8v28.631h2.8ZM0 19.085h15.158v-2.8H0v2.8Z" fill="#106AC6" mask="url(#ba)"/><mask id="bb" fill="#fff"><path d="m49.682 26.105-6.737 5.053 6.737 5.895"/></mask><path d="m42.945 31.158-.84-1.12-1.381 1.036 1.3 1.138.921-1.054Zm5.897-6.173-6.737 5.053 1.68 2.24 6.737-5.052-1.68-2.24Zm-6.819 7.227 6.737 5.894L50.604 36l-6.737-5.895-1.844 2.108Z" fill="#106AC6" mask="url(#bb)"/><mask id="bc" fill="#fff"><path d="m27.79 43.79 10.104-7.58 8.421 7.58"/></mask><path d="m37.894 36.21.937-1.04-.856-.77-.92.69.84 1.12Zm-9.265 8.7 10.105-7.58-1.68-2.24-10.105 7.58 1.68 2.24Zm8.329-7.658 8.42 7.578 1.874-2.08-8.421-7.58-1.873 2.081Z" fill="#106AC6" mask="url(#bc)"/><path d="M31.241 19.794c-1.972 2.586-4.157 5.45-5.136 9.654-.979-4.204-3.163-7.068-5.136-9.654l-.453-.596c-2.097-2.768-3.816-5.3-3.816-9.093C16.7 4.892 20.932.7 26.105.7c5.174 0 9.405 4.192 9.405 9.405 0 3.793-1.718 6.325-3.815 9.093l-.454.596Z" stroke="#106AC6" stroke-width="1.4"/><path d="M28.771 10.105a2.668 2.668 0 1 1-5.337 0 2.668 2.668 0 0 1 5.337 0Z" stroke="#106AC6" stroke-width="1.4"/><mask id="bd" fill="#fff"><path d="M46.315 20.21 23.578 37.895l-16-17.685"/></mask><path d="m23.578 37.895-1.038.939.872.964L24.438 39l-.86-1.105Zm21.877-18.79L22.72 36.79 24.438 39l22.737-17.684-1.72-2.21Zm-20.839 17.85-16-17.684L6.54 21.15l16 17.684 2.076-1.879Z" fill="#106AC6" mask="url(#bd)"/><mask id="be" fill="#fff"><path d="m15.999 43.79 2.526-1.685-5.895-6.737-9.263 7.58"/></mask><path d="m18.525 42.105.777 1.165 1.328-.886-1.051-1.2-1.054.921Zm-5.895-6.737 1.054-.922-.892-1.019-1.048.858.886 1.083Zm4.145 9.586 2.527-1.684-1.553-2.33-2.527 1.684 1.553 2.33Zm2.804-3.77-5.895-6.738-2.107 1.844 5.894 6.737 2.108-1.844Zm-7.835-6.9-9.263 7.58 1.773 2.167 9.263-7.58-1.773-2.166Z" fill="#106AC6" mask="url(#be)"/><mask id="bf" fill="#fff"><path d="m2.523 23.58 6.737 7.578-6.737 5.053"/></mask><path d="m9.26 31.158.84 1.12 1.218-.913-1.011-1.137-1.047.93Zm-7.783-6.649 6.737 7.58 2.093-1.861-6.737-7.579-2.093 1.86Zm6.943 5.529-6.737 5.053 1.68 2.24 6.737-5.053-1.68-2.24Z" fill="#106AC6" mask="url(#bf)"/></svg><svg width="41" height="41" fill="none" viewBox="0 0 41 41" id="pm-3" x="79" y="59" xmlns="http://www.w3.org/2000/svg"><g clip-path="url(#ca)" stroke="#106AC6" stroke-width="1.4"><path d="m18.322 33.149-.907-7.851-6.072-3.49v-8.723c0-1.64-1.108-1.858-2.582-2.617-1.413-.724-2.818-.872-4.344 0a21.903 21.903 0 0 0-2.609 1.745c-.593.497-.933 1.317-.933 2.102v5.749m4.362-6.979v8.2c0 1.422.418 2.94 1.893 3.577l6.813 2.626.846 5.67M4.43 38.383l4.92-12.684M5.883 23.736.945 38.383M10.536 7.851a3.49 3.49 0 1 0 0-6.979 3.49 3.49 0 0 0 0 6.979ZM11.414 16.61l5.164 2.852"/><path d="M13.086 40.128v-4.362h9.596v-8.723h8.723v-8.724h8.724"/></g><defs><clipPath id="ca"><path fill="#fff" d="M0 0h41v41H0z"/></clipPath></defs></svg><svg width="59" height="46" fill="none" viewBox="0 0 59 46" id="pm-4" x="64" xmlns="http://www.w3.org/2000/svg"><path d="M49.387 1H9.086v31.485h40.3V1Z" stroke="#106AC6" stroke-width="1.4" stroke-linecap="round" stroke-linejoin="round"/><path d="M45.602 27.447 35.527 17.372l-8.816 8.816" stroke="#106AC6" stroke-width="1.4" stroke-linecap="round" stroke-linejoin="round"/><path d="m30.496 22.41-5.038-5.038-10.075 10.075M19.161 14.854a3.778 3.778 0 1 0 0-7.557 3.778 3.778 0 0 0 0 7.557ZM13.864 35.733l-.216 1.802 40.016 4.789 3.74-31.263-4.336-.518" stroke="#106AC6" stroke-width="1.4" stroke-linecap="round" stroke-linejoin="round"/><path d="m5.5 12.942-4.352.491 3.53 31.287 16.9-1.908" stroke="#106AC6" stroke-width="1.4" stroke-linecap="round" stroke-linejoin="round"/></svg><svg width="31" height="55" fill="none" viewBox="0 0 31 55" id="pm-5" y="59" xmlns="http://www.w3.org/2000/svg"><path d="M11.925 1h-1.057a2.993 2.993 0 0 0-2.993 2.993v2.23a2.993 2.993 0 0 0 2.993 2.994h1.057a2.993 2.993 0 0 0 2.993-2.993v-2.23A2.993 2.993 0 0 0 11.925 1ZM5.523 55V19.783M21.959 31.522V19.219c0-4.062-3.616-6.48-8.065-6.48H8.893c-4.45 0-8.065 2.418-8.065 6.468v13.559c0 1.256 1.115 2.277 2.5 2.277h2.196M17.266 19.783v11.739M30.173 33.87H11.391v11.739h18.782v-11.74ZM11.39 40.937h18.783M19.61 37.391h2.347" stroke="#106AC6" stroke-width="1.4" stroke-miterlimit="10"/></svg><svg width="48" height="47" fill="none" viewBox="0 0 48 47" id="pm-6" x="123" y="47" xmlns="http://www.w3.org/2000/svg"><path d="M14 25v-8.49c0-3.46 3.08-5.51 6.87-5.51h4.26c3.8 0 6.87 2.06 6.87 5.52V25M23.45 1h-.9A2.55 2.55 0 0 0 20 3.55v1.9A2.55 2.55 0 0 0 22.55 8h.9A2.55 2.55 0 0 0 26 5.45v-1.9A2.55 2.55 0 0 0 23.45 1ZM18 25v-8M28 17v8M11 32v-7h24v7" stroke="#106AC6" stroke-width="1.4" stroke-miterlimit="10"/><path d="M15 32v-3h16v3M6.508 39.76c.08 0 .16-.01.24-.01 3.09 0 5.6 2.33 5.74 5.25M12.508 45c.13-2.84 2.51-5.11 5.47-5.24h.03c.08 0 .16-.01.24-.01 3.09 0 5.6 2.33 5.74 5.25M24.008 45c.13-2.84 2.51-5.11 5.47-5.24h.03c.08 0 .16-.01.24-.01 3.09 0 5.6 2.33 5.74 5.25M40.986 39.76c-2.96.13-5.34 2.4-5.47 5.24" stroke="#106AC6" stroke-width="1.4" stroke-miterlimit="10"/><path d="M6.51 39.76c0-.08-.01-.17-.01-.25 0-3.04 2.57-5.51 5.75-5.51S18 36.46 18 39.51M18 39.51c0-3.04 2.57-5.51 5.75-5.51s5.75 2.46 5.75 5.51M29.5 39.51c0-3.04 2.57-5.51 5.75-5.51S41 36.46 41 39.51c0 .09 0 .17-.01.25M1 45.25c0-2.96 2.45-5.37 5.51-5.49M47.002 45.25c0-3.04-2.57-5.51-5.75-5.51-.09 0-.18 0-.26.01M0 46h48" stroke="#106AC6" stroke-width="1.4" stroke-miterlimit="10"/></svg><svg width="48" height="54" fill="none" viewBox="0 0 48 54" id="pm-7" x="31" y="59" xmlns="http://www.w3.org/2000/svg"><path d="m4.306 26.205-2.802 7.19a9.575 9.575 0 0 0-.169 5.576l3.998 10.777v3.25" stroke="#106AC6" stroke-width="1.4" stroke-linecap="round" stroke-linejoin="round"/><path d="M23.75 42.167S46.5 32.365 46.5 15.079C46.5 5.901 40.806 1 34.178 1 27.55 1 23.75 7.862 23.75 7.862S19.956 1 13.322 1 1 5.901 1 15.079c0 17.286 22.75 27.088 22.75 27.088Z" stroke="#106AC6" stroke-width="1.4" stroke-linejoin="round"/><path d="M10.75 37.833c1.012-.463 1.933-1.306 2.073-2.578l1.062-9.952a2.77 2.77 0 0 1 2.795-2.637 2.738 2.738 0 0 1 2.358 1.383c.225.4.379.828.379 1.226v14.831c0 5.31-2.167 9.644-2.167 9.644V53" fill="#fff"/><path d="M10.75 37.833c1.012-.463 1.933-1.306 2.073-2.578l1.062-9.952a2.77 2.77 0 0 1 2.795-2.637 2.738 2.738 0 0 1 2.358 1.383c.225.4.379.828.379 1.226v14.831c0 5.31-2.167 9.644-2.167 9.644V53M43.191 26.205l2.802 7.19a9.576 9.576 0 0 1 .169 5.576l-3.998 10.777v3.25" stroke="#106AC6" stroke-width="1.4" stroke-linecap="round" stroke-linejoin="round"/><path d="M36.753 37.833c-1.012-.463-1.933-1.306-2.074-2.578l-1.062-9.952a2.77 2.77 0 0 0-2.795-2.637 2.738 2.738 0 0 0-2.357 1.383c-.225.4-.38.828-.38 1.226v14.831c0 5.31 2.168 9.644 2.168 9.644V53" fill="#fff"/><path d="M36.753 37.833c-1.012-.463-1.933-1.306-2.074-2.578l-1.062-9.952a2.77 2.77 0 0 0-2.795-2.637 2.738 2.738 0 0 0-2.357 1.383c-.225.4-.38.828-.38 1.226v14.831c0 5.31 2.168 9.644 2.168 9.644V53" stroke="#106AC6" stroke-width="1.4" stroke-linecap="round" stroke-linejoin="round"/></svg></svg>