<svg width="64" height="59" viewBox="0 0 64 59" fill="none" xmlns="http://www.w3.org/2000/svg">
<path d="M38.3176 57.3167L19.8927 34.2842L1 57.4791" stroke="#106AC6" stroke-width="1.4" stroke-linecap="round" stroke-linejoin="round"/>
<path d="M27.1328 43.3373L44.3135 23.4932L63.1222 45.9205" stroke="#106AC6" stroke-width="1.4" stroke-linecap="round" stroke-linejoin="round"/>
<path d="M14.826 21.5382C18.4276 21.5382 21.3473 18.6185 21.3473 15.0169C21.3473 11.4153 18.4276 8.49561 14.826 8.49561C11.2244 8.49561 8.30469 11.4153 8.30469 15.0169C8.30469 18.6185 11.2244 21.5382 14.826 21.5382Z" stroke="#106AC6" stroke-width="1.4" stroke-linecap="round" stroke-linejoin="round"/>
<path d="M14.8281 1.59033V5.34815" stroke="#106AC6" stroke-width="1.4" stroke-linecap="round" stroke-linejoin="round"/>
<path d="M6.19531 4.73242L8.61246 7.61015" stroke="#106AC6" stroke-width="1.4" stroke-linecap="round" stroke-linejoin="round"/>
<path d="M1.60156 12.6855L5.30226 13.3389" stroke="#106AC6" stroke-width="1.4" stroke-linecap="round" stroke-linejoin="round"/>
<path d="M3.19531 21.7309L6.44971 19.8511" stroke="#106AC6" stroke-width="1.4" stroke-linecap="round" stroke-linejoin="round"/>
<path d="M10.2344 27.6346L11.5197 24.1035" stroke="#106AC6" stroke-width="1.4" stroke-linecap="round" stroke-linejoin="round"/>
<path d="M19.4181 27.6346L18.1328 24.1035" stroke="#106AC6" stroke-width="1.4" stroke-linecap="round" stroke-linejoin="round"/>
<path d="M26.4497 21.7309L23.1953 19.8511" stroke="#106AC6" stroke-width="1.4" stroke-linecap="round" stroke-linejoin="round"/>
<path d="M28.0444 12.6855L24.3438 13.3389" stroke="#106AC6" stroke-width="1.4" stroke-linecap="round" stroke-linejoin="round"/>
<path d="M23.4544 4.73242L21.0391 7.61015" stroke="#106AC6" stroke-width="1.4" stroke-linecap="round" stroke-linejoin="round"/>
<path d="M6.83594 50.3122L16.1511 45.5957L20.0838 50.8941L22.2457 45.4814L28.0458 49.6802L29.2008 45.9206" stroke="#106AC6" stroke-width="1.4" stroke-linecap="round" stroke-linejoin="round"/>
<path d="M30.9453 39.3883L40.2604 34.6701L44.1932 39.9703L46.3551 34.5576L52.1551 38.7546L53.3084 34.9968" stroke="#106AC6" stroke-width="1.4" stroke-linecap="round" stroke-linejoin="round"/>
</svg>
