<svg width="53" height="47" viewBox="0 0 53 47" fill="none" xmlns="http://www.w3.org/2000/svg">
<mask id="path-1-inside-1_2869_31577" fill="white">
<path d="M37.0526 17.6846H52.2105V46.3162H0V17.6846H15.1579"/>
</mask>
<path d="M52.2105 17.6846H53.6105V16.2846H52.2105V17.6846ZM52.2105 46.3162V47.7162H53.6105V46.3162H52.2105ZM0 46.3162H-1.4V47.7162H0V46.3162ZM0 17.6846V16.2846H-1.4V17.6846H0ZM37.0526 19.0846H52.2105V16.2846H37.0526V19.0846ZM50.8105 17.6846V46.3162H53.6105V17.6846H50.8105ZM52.2105 44.9162H0V47.7162H52.2105V44.9162ZM1.4 46.3162V17.6846H-1.4V46.3162H1.4ZM0 19.0846H15.1579V16.2846H0V19.0846Z" fill="#106AC6" mask="url(#path-1-inside-1_2869_31577)"/>
<mask id="path-3-inside-2_2869_31577" fill="white">
<path d="M49.6822 26.1055L42.9453 31.1581L49.6822 37.0528"/>
</mask>
<path d="M42.9453 31.1581L42.1053 30.0381L40.7236 31.0744L42.0234 32.2117L42.9453 31.1581ZM48.8422 24.9855L42.1053 30.0381L43.7853 32.2781L50.5222 27.2255L48.8422 24.9855ZM42.0234 32.2117L48.7602 38.1064L50.6041 35.9992L43.8672 30.1045L42.0234 32.2117Z" fill="#106AC6" mask="url(#path-3-inside-2_2869_31577)"/>
<mask id="path-5-inside-3_2869_31577" fill="white">
<path d="M27.7891 43.7899L37.8943 36.2109L46.3154 43.7899"/>
</mask>
<path d="M37.8943 36.2109L38.8309 35.1703L37.9752 34.4003L37.0543 35.0909L37.8943 36.2109ZM28.6291 44.9099L38.7343 37.3309L37.0543 35.0909L26.9491 42.6699L28.6291 44.9099ZM36.9578 37.2515L45.3788 44.8305L47.2519 42.7493L38.8309 35.1703L36.9578 37.2515Z" fill="#106AC6" mask="url(#path-5-inside-3_2869_31577)"/>
<path d="M31.2415 19.7938C29.2686 22.3801 27.0843 25.2437 26.1053 29.4485C25.1262 25.2437 22.9419 22.3801 20.9691 19.7938C20.8165 19.5938 20.6652 19.3955 20.5159 19.1984C18.4189 16.4303 16.7 13.898 16.7 10.1053C16.7 4.89175 20.932 0.7 26.1053 0.7C31.2786 0.7 35.5105 4.89175 35.5105 10.1053C35.5105 13.898 33.7917 16.4303 31.6947 19.1984C31.5453 19.3955 31.394 19.5938 31.2415 19.7938Z" stroke="#106AC6" stroke-width="1.4"/>
<path d="M28.7712 10.1052C28.7712 11.579 27.5765 12.7737 26.1028 12.7737C24.6291 12.7737 23.4344 11.579 23.4344 10.1052C23.4344 8.63151 24.6291 7.43682 26.1028 7.43682C27.5765 7.43682 28.7712 8.63151 28.7712 10.1052Z" stroke="#106AC6" stroke-width="1.4"/>
<mask id="path-9-inside-4_2869_31577" fill="white">
<path d="M46.315 20.2104L23.5781 37.8947L7.57812 20.2104"/>
</mask>
<path d="M23.5781 37.8947L22.54 38.8339L23.4118 39.7976L24.4376 38.9998L23.5781 37.8947ZM45.4554 19.1054L22.7186 36.7896L24.4376 38.9998L47.1745 21.3155L45.4554 19.1054ZM24.6163 36.9554L8.61628 19.2712L6.53997 21.1497L22.54 38.8339L24.6163 36.9554Z" fill="#106AC6" mask="url(#path-9-inside-4_2869_31577)"/>
<mask id="path-11-inside-5_2869_31577" fill="white">
<path d="M15.9988 43.7892L18.5251 42.105L12.6303 35.3682L3.36719 42.9471"/>
</mask>
<path d="M18.5251 42.105L19.3017 43.2699L20.6298 42.3844L19.5787 41.1831L18.5251 42.105ZM12.6303 35.3682L13.684 34.4463L12.7921 33.427L11.7438 34.2846L12.6303 35.3682ZM16.7753 44.9541L19.3017 43.2699L17.7485 40.9401L15.2222 42.6243L16.7753 44.9541ZM19.5787 41.1831L13.684 34.4463L11.5767 36.2901L17.4715 43.0269L19.5787 41.1831ZM11.7438 34.2846L2.48065 41.8636L4.25372 44.0307L13.5169 36.4517L11.7438 34.2846Z" fill="#106AC6" mask="url(#path-11-inside-5_2869_31577)"/>
<mask id="path-13-inside-6_2869_31577" fill="white">
<path d="M2.52344 23.5791L9.26028 31.158L2.52344 36.2107"/>
</mask>
<path d="M9.26028 31.158L10.1003 32.278L11.3175 31.3651L10.3067 30.2279L9.26028 31.158ZM1.47706 24.5092L8.21391 32.0882L10.3067 30.2279L3.56981 22.649L1.47706 24.5092ZM8.42028 30.038L1.68344 35.0907L3.36344 37.3307L10.1003 32.278L8.42028 30.038Z" fill="#106AC6" mask="url(#path-13-inside-6_2869_31577)"/>
</svg>
