<svg width="41" height="41" viewBox="0 0 41 41" fill="none" xmlns="http://www.w3.org/2000/svg">
<g clip-path="url(#clip0_2921_20626)">
<path d="M18.3218 33.1489L17.4146 25.2979L11.3431 21.8085V13.0851C11.3431 11.4451 10.2352 11.227 8.76096 10.4681C7.34777 9.74405 5.9433 9.59575 4.4167 10.4681C2.89011 11.3404 1.8084 12.2128 1.8084 12.2128C1.21521 12.71 0.875 13.53 0.875 14.3151V20.0638M5.2367 13.0851V21.2851C5.2367 22.707 5.65543 24.2249 7.12968 24.8617L13.9427 27.4875L14.7888 33.1577" stroke="#106AC6" stroke-width="1.4"/>
<path d="M4.42969 38.383L9.34969 25.6992" stroke="#106AC6" stroke-width="1.4"/>
<path d="M5.88276 23.7363L0.945312 38.3829" stroke="#106AC6" stroke-width="1.4"/>
<path d="M10.5362 7.85104C12.4634 7.85104 14.0256 6.2888 14.0256 4.36168C14.0256 2.43455 12.4634 0.872314 10.5362 0.872314C8.60912 0.872314 7.04688 2.43455 7.04688 4.36168C7.04688 6.2888 8.60912 7.85104 10.5362 7.85104Z" stroke="#106AC6" stroke-width="1.4"/>
<path d="M11.4141 16.6094L16.5783 19.4619" stroke="#106AC6" stroke-width="1.4"/>
<path d="M13.0859 40.1276V35.7659H22.6817V27.0425H31.4051V18.3191H40.1285" stroke="#106AC6" stroke-width="1.4"/>
</g>
<defs>
<clipPath id="clip0_2921_20626">
<rect width="41" height="41" fill="white"/>
</clipPath>
</defs>
</svg>
