<svg width="59" height="46" viewBox="0 0 59 46" fill="none" xmlns="http://www.w3.org/2000/svg">
<path d="M49.3867 1H9.08594V32.485H49.3867V1Z" stroke="#106AC6" stroke-width="1.4" stroke-linecap="round" stroke-linejoin="round"/>
<path d="M45.6019 27.4473L35.5267 17.3721L26.7109 26.1879" stroke="#106AC6" stroke-width="1.4" stroke-linecap="round" stroke-linejoin="round"/>
<path d="M30.4956 22.4097L25.458 17.3721L15.3828 27.4473" stroke="#106AC6" stroke-width="1.4" stroke-linecap="round" stroke-linejoin="round"/>
<path d="M19.161 14.8535C21.2477 14.8535 22.9392 13.162 22.9392 11.0753C22.9392 8.98868 21.2477 7.29712 19.161 7.29712C17.0744 7.29712 15.3828 8.98868 15.3828 11.0753C15.3828 13.162 17.0744 14.8535 19.161 14.8535Z" stroke="#106AC6" stroke-width="1.4" stroke-linecap="round" stroke-linejoin="round"/>
<path d="M13.8641 35.7326L13.6484 37.5351L53.6643 42.3239L57.4047 11.0609L53.0677 10.543" stroke="#106AC6" stroke-width="1.4" stroke-linecap="round" stroke-linejoin="round"/>
<path d="M5.49967 12.9421L1.14844 13.4333L4.67791 44.72L21.5775 42.812" stroke="#106AC6" stroke-width="1.4" stroke-linecap="round" stroke-linejoin="round"/>
</svg>
