<svg width="31" height="55" viewBox="0 0 31 55" fill="none" xmlns="http://www.w3.org/2000/svg">
<path d="M11.925 1H10.8685C9.21523 1 7.875 2.34023 7.875 3.99348V6.22391C7.875 7.87716 9.21523 9.21739 10.8685 9.21739H11.925C13.5783 9.21739 14.9185 7.87716 14.9185 6.22391V3.99348C14.9185 2.34023 13.5783 1 11.925 1Z" stroke="#106AC6" stroke-width="1.4" stroke-miterlimit="10"/>
<path d="M5.52344 55.0001V19.7827" stroke="#106AC6" stroke-width="1.4" stroke-miterlimit="10"/>
<path d="M21.9586 31.5216V19.219C21.9586 15.1573 18.3429 12.739 13.8938 12.739H8.89291C4.44378 12.739 0.828125 15.1573 0.828125 19.2073V32.766C0.828125 34.0221 1.94334 35.0434 3.32856 35.0434H5.52378" stroke="#106AC6" stroke-width="1.4" stroke-miterlimit="10"/>
<path d="M17.2656 19.7827V31.5218" stroke="#106AC6" stroke-width="1.4" stroke-miterlimit="10"/>
<path d="M30.1732 33.8696H11.3906V45.6088H30.1732V33.8696Z" stroke="#106AC6" stroke-width="1.4" stroke-miterlimit="10"/>
<path d="M11.3906 40.9365H30.1732" stroke="#106AC6" stroke-width="1.4" stroke-miterlimit="10"/>
<path d="M19.6094 37.3914H21.9572" stroke="#106AC6" stroke-width="1.4" stroke-miterlimit="10"/>
</svg>
