<svg width="48" height="54" viewBox="0 0 48 54" fill="none" xmlns="http://www.w3.org/2000/svg">
<path d="M4.30557 26.2051L1.50407 33.3941C0.895236 35.1924 0.836736 37.1359 1.33507 38.9711L5.33257 49.7481V52.9981" stroke="#106AC6" stroke-width="1.4" stroke-linecap="round" stroke-linejoin="round"/>
<path d="M23.75 42.1667C23.75 42.1667 46.5 32.3647 46.5 15.079C46.5 5.901 40.806 1 34.1782 1C27.5503 1 23.75 7.86184 23.75 7.86184C23.75 7.86184 19.9562 1 13.3218 1C6.6875 1 1 5.901 1 15.079C1 32.3647 23.75 42.1667 23.75 42.1667Z" stroke="#106AC6" stroke-width="1.4" stroke-linejoin="round"/>
<path d="M10.75 37.8332C11.7618 37.3695 12.6827 36.5267 12.8235 35.2549L13.8852 25.3033C13.9545 23.8993 15.0855 22.6708 16.6802 22.6665C17.6422 22.6643 18.5673 23.2103 19.0375 24.0488C19.2628 24.4497 19.4167 24.8765 19.4167 25.2752V40.106C19.4167 45.4165 17.25 49.7499 17.25 49.7499V52.9999" fill="white"/>
<path d="M10.75 37.8332C11.7618 37.3695 12.6827 36.5267 12.8235 35.2549L13.8852 25.3033C13.9545 23.8993 15.0855 22.6708 16.6802 22.6665C17.6422 22.6643 18.5673 23.2103 19.0375 24.0488C19.2628 24.4497 19.4167 24.8765 19.4167 25.2752V40.106C19.4167 45.4165 17.25 49.7499 17.25 49.7499V52.9999" stroke="#106AC6" stroke-width="1.4" stroke-linecap="round" stroke-linejoin="round"/>
<path d="M43.1911 26.2051L45.9926 33.3941C46.6014 35.1924 46.6599 37.1359 46.1616 38.9711L42.1641 49.7481V52.9981" stroke="#106AC6" stroke-width="1.4" stroke-linecap="round" stroke-linejoin="round"/>
<path d="M36.7526 37.8332C35.7408 37.3695 34.8199 36.5267 34.6791 35.2549L33.6174 25.3033C33.5481 23.8993 32.4171 22.6708 30.8224 22.6665C29.8604 22.6643 28.9353 23.2103 28.4651 24.0488C28.2398 24.4497 28.0859 24.8765 28.0859 25.2752V40.106C28.0859 45.4165 30.2526 49.7499 30.2526 49.7499V52.9999" fill="white"/>
<path d="M36.7526 37.8332C35.7408 37.3695 34.8199 36.5267 34.6791 35.2549L33.6174 25.3033C33.5481 23.8993 32.4171 22.6708 30.8224 22.6665C29.8604 22.6643 28.9353 23.2103 28.4651 24.0488C28.2398 24.4497 28.0859 24.8765 28.0859 25.2752V40.106C28.0859 45.4165 30.2526 49.7499 30.2526 49.7499V52.9999" stroke="#106AC6" stroke-width="1.4" stroke-linecap="round" stroke-linejoin="round"/>
</svg>
