<svg width="285" height="183" viewBox="0 0 285 183" fill="none" xmlns="http://www.w3.org/2000/svg">
<mask id="mask0_2375_19758" style="mask-type:alpha" maskUnits="userSpaceOnUse" x="0" y="0" width="285" height="183">
<path d="M267.452 0H17.5508C7.87244 0 0 7.85974 0 17.5201V165.48C0 175.139 7.87244 183 17.5508 183H267.452C277.129 183 285 175.14 285 165.48V17.5201C285 7.86089 277.129 0 267.452 0Z" fill="black"/>
</mask>
<g mask="url(#mask0_2375_19758)">
<path d="M128.722 -9H93.7695V65.2501L128.722 100.203V-9Z" fill="black"/>
<path d="M66.2084 -9H19.5508L66.2084 37.69V-9Z" fill="black"/>
<path d="M0 10.4214V57.2411H46.8197L0 10.4214Z" fill="black"/>
<path d="M66.209 128.833H93.7691V199.355L128.722 234.307V139.144L74.2825 84.7371H0V105.585L66.209 171.794V128.833Z" fill="black"/>
<path d="M0 144.527V191.379H46.8197L0 144.527Z" fill="black"/>
<path d="M218.729 -9V37.69L265.387 -9H218.729Z" fill="black"/>
<path d="M191.175 -9H156.223V100.203L191.175 65.2501V-9Z" fill="black"/>
<path d="M238.12 57.2411H284.94V10.4214L238.12 57.2411Z" fill="black"/>
<path d="M156.223 139.143V234.306L191.175 199.353V128.832H218.735V171.793L284.944 105.584V84.7358H210.662L156.223 139.143Z" fill="black"/>
<path d="M284.94 191.378V144.526L238.12 191.378H284.94Z" fill="black"/>
</g>
</svg>
