<svg width="18" height="18" viewBox="0 0 18 18" fill="none" xmlns="http://www.w3.org/2000/svg">
<path d="M9.15674 12.9985V7.85564H7.44245M7.44245 12.4271H10.871M9.00001 1C13.4183 1 17 4.58173 17 9C17 13.4183 13.4183 17 9 17C4.58173 17 1 13.4183 1 9C1 4.58173 4.58173 1 9.00001 1Z" stroke="#106AC6" stroke-width="1.4"/>
<path d="M9.99992 4.99999C9.99992 5.55228 9.55221 5.99999 8.99992 5.99999C8.44764 5.99999 7.99992 5.55228 7.99992 4.99999C7.99992 4.44771 8.44764 3.99999 8.99992 3.99999C9.55221 3.99999 9.99992 4.44771 9.99992 4.99999Z" fill="#106AC6"/>
</svg>
