<svg width="41" height="36" viewBox="0 0 41 36" fill="none" xmlns="http://www.w3.org/2000/svg">
<mask id="path-1-inside-1_2274_23204" fill="white">
<path d="M7.02344 26.3561C12.0169 31.4653 18.3797 35.1246 20.064 35.9999C21.7793 35.1034 28.2904 31.3523 33.3106 26.1316"/>
</mask>
<path d="M20.064 35.9999L19.4184 37.2421L20.0658 37.5786L20.7124 37.2406L20.064 35.9999ZM6.02221 27.3346C11.1628 32.5943 17.6717 36.3344 19.4184 37.2421L20.7096 34.7576C19.0878 33.9148 12.871 30.3362 8.02466 25.3775L6.02221 27.3346ZM20.7124 37.2406C22.487 36.3132 29.1489 32.4793 34.3198 27.102L32.3015 25.1612C27.4318 30.2253 21.0715 33.8936 19.4155 34.7591L20.7124 37.2406Z" fill="url(#paint0_linear_2274_23204)" mask="url(#path-1-inside-1_2274_23204)"/>
<mask id="path-3-inside-2_2274_23204" fill="white">
<path d="M1.88035 17.5509C-0.115901 13.8422 -0.794963 9.77067 1.19564 5.637C6.16507 -4.71412 17.6117 2.1358 20.0626 3.28075C22.5374 2.12592 33.9544 -4.7 38.9238 5.637C40.8721 9.69443 40.2551 13.6883 38.345 17.3392"/>
</mask>
<path d="M1.19564 5.637L2.457 6.24442L2.45773 6.24291L1.19564 5.637ZM20.0626 3.28075L19.47 4.54916L20.0622 4.82583L20.6546 4.54943L20.0626 3.28075ZM38.9238 5.637L40.1859 5.031L40.1856 5.03041L38.9238 5.637ZM3.11311 16.8874C1.26334 13.4508 0.714237 9.86343 2.457 6.24442L-0.0657293 5.02958C-2.30416 9.6779 -1.49515 14.2336 0.64758 18.2145L3.11311 16.8874ZM2.45773 6.24291C3.57449 3.91673 4.99285 2.66684 6.45869 2.02264C7.95245 1.36617 9.63925 1.27641 11.3683 1.53272C14.8945 2.05545 18.0996 3.90898 19.47 4.54916L20.6551 2.01234C19.5746 1.50758 15.831 -0.636324 11.7789 -1.23701C9.7187 -1.54241 7.45889 -1.47538 5.33216 -0.540739C3.17751 0.406172 1.3015 2.18171 -0.0664536 5.03109L2.45773 6.24291ZM20.6546 4.54943C22.0369 3.90439 25.2405 2.0543 28.7622 1.53443C30.4888 1.27955 32.1727 1.37041 33.6643 2.0269C35.1283 2.67121 36.5452 3.92035 37.6621 6.24358L40.1856 5.03041C38.8178 2.18515 36.944 0.411151 34.7923 -0.535868C32.6682 -1.47071 30.4115 -1.53938 28.3533 -1.23555C24.3054 -0.638 20.5631 1.50229 19.4706 2.01208L20.6546 4.54943ZM37.6618 6.24299C39.3687 9.79791 38.8701 13.3156 37.1045 16.6902L39.5855 17.9882C41.6402 14.0611 42.3754 9.59096 40.1859 5.031L37.6618 6.24299Z" fill="url(#paint1_linear_2274_23204)" mask="url(#path-3-inside-2_2274_23204)"/>
<path d="M31.0522 10.8528L31.0627 14.2932L31.0671 15.6956L29.9437 14.856L21.8345 8.79527L21.8344 8.79521C20.9045 8.10001 19.627 8.10581 18.7043 8.81061L18.7042 8.81069L1.83495 21.6917C1.10239 22.2511 0.959612 23.2962 1.5155 24.0325L31.0522 10.8528ZM31.0522 10.8528L33.4569 10.8465M31.0522 10.8528L33.4569 10.8465M33.4569 10.8465L33.476 17.1457V17.1471L33.476 17.1492L34.174 17.1481L33.7484 17.6999L38.7785 21.5809C39.5074 22.1432 39.6506 23.188 39.0999 23.9268C38.5404 24.6758 37.4766 24.8267 36.7301 24.2619L21.6976 12.8872L21.6975 12.8872C20.8547 12.2496 19.6919 12.2538 18.8536 12.8951L3.86918 24.3529L3.869 24.3531C3.13145 24.9174 2.0751 24.7732 1.51558 24.0326L33.4569 10.8465Z" stroke="url(#paint2_linear_2274_23204)" stroke-width="1.4"/>
<path d="M20.2891 20.3279V29.558" stroke="url(#paint3_linear_2274_23204)" stroke-width="1.4"/>
<path d="M15.6719 24.9429H24.902" stroke="url(#paint4_linear_2274_23204)" stroke-width="1.4"/>
<path d="M16.3778 21.0279H24.1947L24.1967 21.028L24.1968 21.0281C24.197 21.0281 24.1979 21.0286 24.1989 21.0296C24.1999 21.0306 24.2004 21.0315 24.2005 21.0317L24.2005 21.0318L24.2006 21.0338V28.8507L24.2005 28.8527L24.2005 28.8528C24.2004 28.8529 24.2002 28.8533 24.1999 28.8538C24.1996 28.8541 24.1993 28.8545 24.1989 28.8549C24.1979 28.856 24.197 28.8564 24.1968 28.8565L24.1967 28.8565L24.1947 28.8566H16.3778L16.3758 28.8565L16.3757 28.8565C16.3755 28.8564 16.3746 28.856 16.3736 28.8549C16.3726 28.8539 16.3721 28.853 16.3721 28.8528L16.372 28.8527L16.3719 28.8507V21.0338L16.372 21.0318L16.3721 21.0317C16.3721 21.0315 16.3726 21.0306 16.3736 21.0296C16.3746 21.0286 16.3755 21.0281 16.3757 21.0281L16.3758 21.028L16.3778 21.0279Z" stroke="url(#paint5_linear_2274_23204)" stroke-width="1.4"/>
<defs>
<linearGradient id="paint0_linear_2274_23204" x1="31.9466" y1="39.9382" x2="28.78" y2="17.0896" gradientUnits="userSpaceOnUse">
<stop stop-color="#1488CC"/>
<stop offset="1" stop-color="#0C4DC1"/>
</linearGradient>
<linearGradient id="paint1_linear_2274_23204" x1="38.0339" y1="24.5553" x2="31.5143" y2="-15.8088" gradientUnits="userSpaceOnUse">
<stop stop-color="#1488CC"/>
<stop offset="1" stop-color="#0C4DC1"/>
</linearGradient>
<linearGradient id="paint2_linear_2274_23204" x1="38.077" y1="32.5094" x2="31.288" y2="-8.41608" gradientUnits="userSpaceOnUse">
<stop stop-color="#1488CC"/>
<stop offset="1" stop-color="#0C4DC1"/>
</linearGradient>
<linearGradient id="paint3_linear_2274_23204" x1="21.2372" y1="33.2417" x2="15.352" y2="31.5146" gradientUnits="userSpaceOnUse">
<stop stop-color="#1488CC"/>
<stop offset="1" stop-color="#0C4DC1"/>
</linearGradient>
<linearGradient id="paint4_linear_2274_23204" x1="24.4231" y1="26.342" x2="24.3289" y2="23.9859" gradientUnits="userSpaceOnUse">
<stop stop-color="#1488CC"/>
<stop offset="1" stop-color="#0C4DC1"/>
</linearGradient>
<linearGradient id="paint5_linear_2274_23204" x1="24.4218" y1="33.2397" x2="17.346" y2="14.0737" gradientUnits="userSpaceOnUse">
<stop stop-color="#1488CC"/>
<stop offset="1" stop-color="#0C4DC1"/>
</linearGradient>
</defs>
</svg>
