<svg width="36" height="12" viewBox="0 0 36 12" fill="none" xmlns="http://www.w3.org/2000/svg">
<path d="M15.5289 11.777H12.6099L14.4343 0.581093H17.3544L15.53 11.777H15.5289ZM10.1539 0.581093L7.37121 8.28174L7.04215 6.62403L6.05954 1.58979C6.05954 1.58979 5.9406 0.582247 4.67509 0.582247H0.0737966L0.0195312 0.771305C0.0195312 0.771305 1.42705 1.06411 3.07359 2.0509L5.61036 11.777H8.65173L13.2969 0.581093H10.1551H10.1539ZM33.1165 11.777H35.7976L33.4606 0.581093H31.1144C30.0302 0.581093 29.7669 1.41572 29.7669 1.41572L25.4127 11.777H28.4564L29.0649 10.1135H32.7759L33.1177 11.777H33.1165ZM29.9043 7.81717L31.4388 3.62792L32.3014 7.81717H29.9043ZM25.6402 3.27402L26.057 0.870445C26.057 0.870445 24.7719 0.382812 23.4313 0.382812C21.9822 0.382812 18.5425 1.01454 18.5425 4.08904C18.5425 6.9814 22.5803 7.01713 22.5803 8.53651C22.5803 10.0559 18.9582 9.78383 17.7631 8.82586L17.329 11.3401C17.329 11.3401 18.6326 11.9718 20.6243 11.9718C22.6161 11.9718 25.6217 10.9424 25.6217 8.1388C25.6217 5.33521 21.5469 4.95709 21.5469 3.69133C21.5469 2.42556 24.3908 2.58811 25.6402 3.27517V3.27402Z" fill="white"/>
<path d="M7.04117 6.62406L6.05856 1.58981C6.05856 1.58981 5.93962 0.582275 4.67412 0.582275H0.0728201L0.0185547 0.771333C0.0185547 0.771333 2.22972 1.22899 4.35082 2.94319C6.37955 4.58246 7.04002 6.62406 7.04002 6.62406H7.04117Z" fill="white"/>
</svg>
