<svg width="246" height="42" viewBox="0 0 246 42" fill="none" xmlns="http://www.w3.org/2000/svg">
<path d="M19.46 0H14.4453V10.7503L19.46 15.8109V0Z" fill="url(#paint0_linear_2986_3137)"/>
<path d="M10.4861 0H3.78125L10.4861 6.75999V0Z" fill="url(#paint1_linear_2986_3137)"/>
<path d="M0.976562 2.81201V9.59078H7.70005L0.976562 2.81201Z" fill="url(#paint2_linear_2986_3137)"/>
<path d="M10.4844 19.9562H14.4422V30.1666L19.4568 35.2272V21.449L11.6438 13.5718H0.976562V16.5903L10.4844 26.1763V19.9562Z" fill="url(#paint3_linear_2986_3137)"/>
<path d="M14.835 36.2034L14.8303 36.1987L9.82031 41.2499H14.835H19.845L14.835 36.1987V36.2034Z" fill="url(#paint4_linear_2986_3137)"/>
<path d="M0.976562 22.228V29.0115H7.70005L0.976562 22.228Z" fill="url(#paint5_linear_2986_3137)"/>
<path d="M0.976562 32.9878V41.25H3.44898L11.6438 32.9878H0.976562Z" fill="url(#paint6_linear_2986_3137)"/>
<path d="M32.3828 0V6.75999L39.0877 0H32.3828Z" fill="url(#paint7_linear_2986_3137)"/>
<path d="M28.4256 0H23.4062V15.8109L28.4256 10.7503V0Z" fill="url(#paint8_linear_2986_3137)"/>
<path d="M35.1641 9.59078H41.8875V2.81201L35.1641 9.59078Z" fill="url(#paint9_linear_2986_3137)"/>
<path d="M23.4062 21.449V35.2272L28.4256 30.1666V19.9562H32.3787V26.1763L41.8865 16.5903V13.5718H31.2193L23.4062 21.449Z" fill="url(#paint10_linear_2986_3137)"/>
<path d="M28.0381 36.2034V36.1987V36.2034L28.0335 36.1987L23.0234 41.2499H28.0381H33.0481L28.0381 36.1987V36.2034Z" fill="url(#paint11_linear_2986_3137)"/>
<path d="M41.8875 29.0115V22.228L35.1641 29.0115H41.8875Z" fill="url(#paint12_linear_2986_3137)"/>
<path d="M39.426 41.25H41.8938V32.9878H31.2266L39.426 41.25Z" fill="url(#paint13_linear_2986_3137)"/>
<path d="M177.089 14.9331C175.962 14.1632 174.649 13.7595 173.29 13.7595H171.362C170.002 13.7595 168.689 14.1679 167.563 14.9331C165.677 16.2194 164.555 18.346 164.555 20.6228C164.555 22.8996 165.681 25.0262 167.563 26.3124C168.689 27.0823 170.002 27.486 171.362 27.486H173.29C174.649 27.486 175.962 27.0776 177.089 26.3124C178.975 25.0262 180.097 22.8996 180.097 20.6228C180.097 18.346 178.97 16.2147 177.089 14.9331ZM176.521 20.6228C176.521 22.6696 175.073 24.3361 173.29 24.3361H171.362C169.579 24.3361 168.131 22.6696 168.131 20.6228C168.131 18.576 169.579 16.9095 171.362 16.9095H173.29C175.073 16.9095 176.521 18.576 176.521 20.6228Z" fill="#2A2A29"/>
<path d="M105.031 19.0502H95.7791V13.7595H92.2031V27.4907H95.7791V22.2001H105.031V27.4907H108.611V13.7595H105.031V19.0502Z" fill="#2A2A29"/>
<path d="M128.431 13.7595L125.055 19.0502H123.407L123.402 13.7595H119.812V19.0502H118.173L114.788 13.7595H110.523L114.961 20.6228L110.523 27.4907H114.788L118.169 22.2001H119.812L119.817 27.4907H123.407V22.2001H125.051L128.431 27.4907H132.696L128.259 20.6228L132.696 13.7595H128.431Z" fill="#2A2A29"/>
<path d="M194.516 13.7595H190.247L186.871 19.0502H185.209V13.7595H181.633V27.4907H185.209V22.2001H186.866L190.247 27.4907H194.516L190.074 20.6228L194.516 13.7595Z" fill="#2A2A29"/>
<path d="M134.742 27.4907H147.09V24.3314L138.318 24.3361V22.2001H145.037V19.0502H138.318V16.9095L147.09 16.9189V13.7595H134.742V27.4907Z" fill="#2A2A29"/>
<path d="M79.4209 13.7595L80.6083 15.8579L73.9453 27.4907H77.5538L78.8203 25.275H85.9302L87.1827 27.4907H91.215L83.3787 13.7595H79.4163H79.4209ZM80.6502 22.0874L82.4009 19.0267L84.133 22.0874H80.6502Z" fill="#2A2A29"/>
<path d="M159.308 13.7595H149.562V27.4907H153.143V22.2001H159.312C161.613 22.2001 163.494 20.3083 163.498 17.9798C163.498 15.6514 161.622 13.7595 159.312 13.7595H159.308ZM153.138 19.0502V16.9142H158.879C159.452 16.9283 159.839 17.4024 159.839 17.9845C159.839 18.5385 159.415 18.9938 158.879 19.0455L153.138 19.0548V19.0502Z" fill="#2A2A29"/>
<path d="M70.8804 13.7644L64.0824 19.7263L57.2844 13.7644H55.2031V27.4956H58.779V19.6043L64.0824 24.2518L69.3858 19.6043V27.4956H72.9617V13.7644H70.8804Z" fill="#2A2A29"/>
<path d="M216.488 20.4019L215.524 18.5242H214.43L215.957 21.5051L215.938 21.5474C215.901 21.6272 215.864 21.6788 215.822 21.707C215.78 21.7352 215.715 21.7492 215.626 21.7492H215.054V22.721H215.692C216.008 22.721 216.246 22.6506 216.404 22.5051C216.553 22.3736 216.721 22.1154 216.921 21.7258L218.541 18.5242H217.456L216.492 20.4019H216.488Z" fill="#2A2A29"/>
<path d="M223.878 18.5291H221.82V22.7259H222.863V21.219H223.878C224.353 21.219 224.726 21.0922 224.982 20.8387C225.238 20.5852 225.364 20.2566 225.364 19.8717C225.364 19.4867 225.233 19.1675 224.982 18.9093C224.726 18.6558 224.358 18.5291 223.878 18.5291ZM224.321 19.8717C224.321 19.989 224.283 20.0735 224.2 20.1392C224.111 20.2097 223.985 20.2472 223.827 20.2472H222.868V19.4961H223.827C223.99 19.4961 224.12 19.5337 224.204 19.6041C224.283 19.6698 224.321 19.7543 224.321 19.8717Z" fill="#2A2A29"/>
<path d="M230.257 18.449C229.633 18.449 229.112 18.6602 228.707 19.078C228.302 19.4958 228.102 20.0169 228.102 20.6225C228.102 21.2281 228.306 21.7492 228.707 22.167C229.112 22.5848 229.633 22.8007 230.257 22.8007C230.881 22.8007 231.407 22.5895 231.808 22.167C232.208 21.7492 232.413 21.2281 232.413 20.6225C232.413 20.0169 232.208 19.4911 231.808 19.078C231.403 18.6602 230.881 18.449 230.257 18.449ZM231.37 20.6225C231.37 20.9652 231.268 21.2422 231.049 21.4816C230.835 21.7163 230.579 21.829 230.257 21.829C229.936 21.829 229.675 21.7163 229.466 21.4816C229.252 21.2469 229.145 20.9652 229.145 20.6225C229.145 20.2798 229.247 19.9981 229.466 19.7634C229.68 19.5334 229.936 19.4207 230.257 19.4207C230.579 19.4207 230.839 19.5334 231.054 19.7634C231.268 19.9981 231.375 20.2798 231.375 20.6225H231.37Z" fill="#2A2A29"/>
<path d="M237.449 18.5289H235.391V22.7257H236.434V21.2188H237.449C237.924 21.2188 238.296 21.092 238.547 20.8385C238.804 20.585 238.929 20.2611 238.929 19.8715C238.929 19.4818 238.799 19.1626 238.547 18.9091C238.296 18.6556 237.924 18.5242 237.449 18.5242V18.5289ZM237.891 19.8715C237.891 19.9888 237.854 20.0733 237.77 20.1438C237.681 20.2142 237.556 20.2517 237.397 20.2517H236.438V19.5006H237.397C237.565 19.5006 237.691 19.5382 237.775 19.6086C237.854 19.6743 237.891 19.7588 237.891 19.8762V19.8715Z" fill="#2A2A29"/>
<path d="M242.219 18.5291V19.4961H243.49V22.7259H244.538V19.4961H245.799V18.5291H242.219Z" fill="#2A2A29"/>
<path d="M210.367 20.5946L211.704 18.5291H210.502L209.441 20.1909H208.831V18.5291H207.82V22.7259H208.831V21.064H209.441L209.459 21.0875L210.502 22.7259H211.704L210.349 20.6275L210.367 20.5946Z" fill="#2A2A29"/>
<defs>
<linearGradient id="paint0_linear_2986_3137" x1="-5.24089" y1="44.2685" x2="21.7051" y2="0.830711" gradientUnits="userSpaceOnUse">
<stop stop-color="#B1E373"/>
<stop offset="1" stop-color="#67B444"/>
</linearGradient>
<linearGradient id="paint1_linear_2986_3137" x1="-14.3684" y1="38.607" x2="12.5823" y2="-4.82603" gradientUnits="userSpaceOnUse">
<stop stop-color="#B1E373"/>
<stop offset="1" stop-color="#67B444"/>
</linearGradient>
<linearGradient id="paint2_linear_2986_3137" x1="-15.1477" y1="38.1236" x2="11.803" y2="-5.30951" gradientUnits="userSpaceOnUse">
<stop stop-color="#B1E373"/>
<stop offset="1" stop-color="#67B444"/>
</linearGradient>
<linearGradient id="paint3_linear_2986_3137" x1="-2.82751" y1="45.7662" x2="24.1232" y2="2.33315" gradientUnits="userSpaceOnUse">
<stop stop-color="#B1E373"/>
<stop offset="1" stop-color="#67B444"/>
</linearGradient>
<linearGradient id="paint4_linear_2986_3137" x1="7.98579" y1="52.4743" x2="34.9318" y2="9.04122" gradientUnits="userSpaceOnUse">
<stop stop-color="#B1E373"/>
<stop offset="1" stop-color="#67B444"/>
</linearGradient>
<linearGradient id="paint5_linear_2986_3137" x1="-6.54778" y1="43.4563" x2="20.3982" y2="0.023151" gradientUnits="userSpaceOnUse">
<stop stop-color="#B1E373"/>
<stop offset="1" stop-color="#67B444"/>
</linearGradient>
<linearGradient id="paint6_linear_2986_3137" x1="-1.85903" y1="46.3669" x2="25.0917" y2="2.93387" gradientUnits="userSpaceOnUse">
<stop stop-color="#B1E373"/>
<stop offset="1" stop-color="#67B444"/>
</linearGradient>
<linearGradient id="paint7_linear_2986_3137" x1="51.0959" y1="39.4755" x2="32.4719" y2="-3.57461" gradientUnits="userSpaceOnUse">
<stop stop-color="#1488CC"/>
<stop offset="1" stop-color="#0C4DC1"/>
</linearGradient>
<linearGradient id="paint8_linear_2986_3137" x1="41.1741" y1="43.7662" x2="22.5548" y2="0.711357" gradientUnits="userSpaceOnUse">
<stop stop-color="#1488CC"/>
<stop offset="1" stop-color="#0C4DC1"/>
</linearGradient>
<linearGradient id="paint9_linear_2986_3137" x1="52.4384" y1="38.8934" x2="33.8191" y2="-4.15672" gradientUnits="userSpaceOnUse">
<stop stop-color="#1488CC"/>
<stop offset="1" stop-color="#0C4DC1"/>
</linearGradient>
<linearGradient id="paint10_linear_2986_3137" x1="40.932" y1="43.8697" x2="22.3127" y2="0.819502" gradientUnits="userSpaceOnUse">
<stop stop-color="#1488CC"/>
<stop offset="1" stop-color="#0C4DC1"/>
</linearGradient>
<linearGradient id="paint11_linear_2986_3137" x1="30.9808" y1="48.1742" x2="12.3615" y2="5.12408" gradientUnits="userSpaceOnUse">
<stop stop-color="#1488CC"/>
<stop offset="1" stop-color="#0C4DC1"/>
</linearGradient>
<linearGradient id="paint12_linear_2986_3137" x1="45.4588" y1="41.9118" x2="26.8395" y2="-1.13837" gradientUnits="userSpaceOnUse">
<stop stop-color="#1488CC"/>
<stop offset="1" stop-color="#0C4DC1"/>
</linearGradient>
<linearGradient id="paint13_linear_2986_3137" x1="41.1535" y1="43.7756" x2="22.5342" y2="0.725443" gradientUnits="userSpaceOnUse">
<stop stop-color="#1488CC"/>
<stop offset="1" stop-color="#0C4DC1"/>
</linearGradient>
</defs>
</svg>
