<svg width="156" height="28" viewBox="0 0 156 28" fill="none" xmlns="http://www.w3.org/2000/svg">
<path d="M11.7762 0.97229H8.58089V7.81735L11.7762 11.0396V0.97229Z" fill="url(#paint0_linear_3103_20685)"/>
<path d="M6.05831 0.97229H1.78604L6.05831 5.27661V0.97229Z" fill="url(#paint1_linear_3103_20685)"/>
<path d="M0 2.76288V7.07915H4.28413L0 2.76288Z" fill="url(#paint2_linear_3103_20685)"/>
<path d="M6.05831 13.6791H8.58013V20.1804L11.7754 23.4027V14.6296L6.79706 9.61392H0V11.5359L6.05831 17.6397V13.6791Z" fill="url(#paint3_linear_3103_20685)"/>
<path d="M8.82909 24.0244L8.82612 24.0214L5.63379 27.2377H8.82909H12.0214L8.82909 24.0214V24.0244Z" fill="url(#paint4_linear_3103_20685)"/>
<path d="M0 15.1257V19.4449H4.28413L0 15.1257Z" fill="url(#paint5_linear_3103_20685)"/>
<path d="M0 21.9769V27.2377H1.5754L6.79705 21.9769H0Z" fill="url(#paint6_linear_3103_20685)"/>
<path d="M20.0127 0.972198V5.27652L24.285 0.972198H20.0127Z" fill="url(#paint7_linear_3103_20685)"/>
<path d="M17.4932 0.972198H14.295V11.0395L17.4932 7.81726V0.972198Z" fill="url(#paint8_linear_3103_20685)"/>
<path d="M21.7861 7.07906H26.0702V2.76279L21.7861 7.07906Z" fill="url(#paint9_linear_3103_20685)"/>
<path d="M14.295 14.6296V23.4026L17.4932 20.1803V13.679H20.0121V17.6396L26.0704 11.5358V9.61383H19.2734L14.295 14.6296Z" fill="url(#paint10_linear_3103_20685)"/>
<path d="M17.2442 24.0243V24.0213V24.0243L17.2413 24.0213L14.0489 27.2376H17.2442H20.4366L17.2442 24.0213V24.0243Z" fill="url(#paint11_linear_3103_20685)"/>
<path d="M26.0702 19.4449V15.1256L21.7861 19.4449H26.0702Z" fill="url(#paint12_linear_3103_20685)"/>
<path d="M24.4982 27.2376H26.0706V21.9768H19.2736L24.4982 27.2376Z" fill="url(#paint13_linear_3103_20685)"/>
<path d="M112.217 10.4808C111.499 9.99061 110.663 9.73355 109.796 9.73355H108.568C107.702 9.73355 106.865 9.9936 106.147 10.4808C104.945 11.2998 104.23 12.6539 104.23 14.1036C104.23 15.5533 104.948 16.9074 106.147 17.7264C106.865 18.2166 107.702 18.4737 108.568 18.4737H109.796C110.663 18.4737 111.499 18.2137 112.217 17.7264C113.419 16.9074 114.134 15.5533 114.134 14.1036C114.134 12.6539 113.416 11.2969 112.217 10.4808ZM111.855 14.1036C111.855 15.4069 110.932 16.468 109.796 16.468H108.568C107.432 16.468 106.509 15.4069 106.509 14.1036C106.509 12.8004 107.432 11.7392 108.568 11.7392H109.796C110.932 11.7392 111.855 12.8004 111.855 14.1036Z" fill="#2A2A29"/>
<path d="M66.3054 13.1023H60.4103V9.73355H58.1317V18.4767H60.4103V15.108H66.3054V18.4767H68.5869V9.73355H66.3054V13.1023Z" fill="#2A2A29"/>
<path d="M81.2131 9.73355L79.0621 13.1023H78.0119L78.0089 9.73355H75.7214V13.1023H74.6771L72.5202 9.73355H69.8026L72.63 14.1036L69.8026 18.4767H72.5202L74.6742 15.108H75.7214L75.7244 18.4767H78.0119V15.108H79.0592L81.2131 18.4767H83.9307L81.1033 14.1036L83.9307 9.73355H81.2131Z" fill="#2A2A29"/>
<path d="M123.322 9.73355H120.602L118.451 13.1023H117.392V9.73355H115.113V18.4767H117.392V15.108H118.448L120.602 18.4767H123.322L120.492 14.1036L123.322 9.73355Z" fill="#2A2A29"/>
<path d="M85.2361 18.4767H93.1042V16.465L87.5146 16.468V15.108H91.7958V13.1023H87.5146V11.7392L93.1042 11.7452V9.73355H85.2361V18.4767Z" fill="#2A2A29"/>
<path d="M49.984 9.73355L50.7406 11.0697L46.495 18.4767H48.7943L49.6013 17.0658H54.1317L54.9298 18.4767H57.499L52.5058 9.73355H49.981H49.984ZM50.7673 15.0362L51.8828 13.0873L52.9865 15.0362H50.7673Z" fill="#2A2A29"/>
<path d="M100.888 9.73355H94.6786V18.4767H96.9601V15.108H100.891C102.357 15.108 103.555 13.9034 103.558 12.4208C103.558 10.9382 102.363 9.73355 100.891 9.73355H100.888ZM96.9571 13.1023V11.7422H100.615C100.98 11.7512 101.226 12.0531 101.226 12.4237C101.226 12.7765 100.956 13.0664 100.615 13.0993L96.9571 13.1053V13.1023Z" fill="#2A2A29"/>
<path d="M44.543 9.7366L40.2114 13.5328L35.8798 9.7366H34.5536V18.4797H36.8321V13.4551L40.2114 16.4143L43.5906 13.4551V18.4797H45.8692V9.7366H44.543Z" fill="#2A2A29"/>
<path d="M137.32 13.963L136.706 12.7674H136.009L136.982 14.6654L136.97 14.6924C136.947 14.7432 136.923 14.776 136.896 14.794C136.869 14.8119 136.828 14.8209 136.771 14.8209H136.407V15.4396H136.813C137.015 15.4396 137.166 15.3948 137.267 15.3021C137.362 15.2184 137.469 15.054 137.596 14.8059L138.629 12.7674H137.937L137.323 13.963H137.32Z" fill="#2A2A29"/>
<path d="M142.032 12.7704H140.721V15.4427H141.385V14.4832H142.032C142.335 14.4832 142.572 14.4025 142.735 14.2411C142.898 14.0797 142.978 13.8704 142.978 13.6253C142.978 13.3802 142.895 13.177 142.735 13.0126C142.572 12.8512 142.338 12.7704 142.032 12.7704ZM142.314 13.6253C142.314 13.7001 142.29 13.7539 142.237 13.7957C142.18 13.8405 142.1 13.8645 141.999 13.8645H141.388V13.3862H141.999C142.103 13.3862 142.186 13.4101 142.24 13.455C142.29 13.4968 142.314 13.5506 142.314 13.6253Z" fill="#2A2A29"/>
<path d="M146.096 12.7195C145.699 12.7195 145.366 12.854 145.108 13.1201C144.85 13.3861 144.723 13.7179 144.723 14.1035C144.723 14.4891 144.853 14.8209 145.108 15.0869C145.366 15.3529 145.699 15.4904 146.096 15.4904C146.494 15.4904 146.829 15.3559 147.084 15.0869C147.339 14.8209 147.47 14.4891 147.47 14.1035C147.47 13.7179 147.339 13.3831 147.084 13.1201C146.826 12.854 146.494 12.7195 146.096 12.7195ZM146.805 14.1035C146.805 14.3217 146.74 14.498 146.601 14.6505C146.464 14.7999 146.301 14.8717 146.096 14.8717C145.892 14.8717 145.725 14.7999 145.592 14.6505C145.455 14.501 145.387 14.3217 145.387 14.1035C145.387 13.8853 145.453 13.7059 145.592 13.5565C145.728 13.41 145.892 13.3383 146.096 13.3383C146.301 13.3383 146.467 13.41 146.604 13.5565C146.74 13.7059 146.808 13.8853 146.808 14.1035H146.805Z" fill="#2A2A29"/>
<path d="M150.68 12.7704H149.369V15.4426H150.034V14.4831H150.68C150.983 14.4831 151.22 14.4024 151.381 14.241C151.544 14.0796 151.624 13.8733 151.624 13.6252C151.624 13.3771 151.541 13.1739 151.381 13.0125C151.22 12.8511 150.983 12.7674 150.68 12.7674V12.7704ZM150.962 13.6252C150.962 13.7 150.939 13.7538 150.885 13.7986C150.829 13.8434 150.749 13.8674 150.648 13.8674H150.037V13.3891H150.648C150.755 13.3891 150.835 13.413 150.888 13.4578C150.939 13.4997 150.962 13.5535 150.962 13.6282V13.6252Z" fill="#2A2A29"/>
<path d="M153.719 12.7704V13.3862H154.529V15.4427H155.196V13.3862H156V12.7704H153.719Z" fill="#2A2A29"/>
<path d="M133.422 14.0857L134.273 12.7704H133.508L132.831 13.8286H132.443V12.7704H131.799V15.4427H132.443V14.3846H132.831L132.843 14.3995L133.508 15.4427H134.273L133.41 14.1066L133.422 14.0857Z" fill="#2A2A29"/>
<defs>
<linearGradient id="paint0_linear_3103_20685" x1="-3.96295" y1="29.1596" x2="13.1891" y2="1.49026" gradientUnits="userSpaceOnUse">
<stop stop-color="#B1E373"/>
<stop offset="1" stop-color="#67B444"/>
</linearGradient>
<linearGradient id="paint1_linear_3103_20685" x1="-9.77874" y1="25.5547" x2="7.37626" y2="-2.11158" gradientUnits="userSpaceOnUse">
<stop stop-color="#B1E373"/>
<stop offset="1" stop-color="#67B444"/>
</linearGradient>
<linearGradient id="paint2_linear_3103_20685" x1="-10.2742" y1="25.247" x2="6.88079" y2="-2.41935" gradientUnits="userSpaceOnUse">
<stop stop-color="#B1E373"/>
<stop offset="1" stop-color="#67B444"/>
</linearGradient>
<linearGradient id="paint3_linear_3103_20685" x1="-2.42392" y1="30.1132" x2="14.7311" y2="2.44692" gradientUnits="userSpaceOnUse">
<stop stop-color="#B1E373"/>
<stop offset="1" stop-color="#67B444"/>
</linearGradient>
<linearGradient id="paint4_linear_3103_20685" x1="4.46485" y1="34.3846" x2="21.6169" y2="6.71829" gradientUnits="userSpaceOnUse">
<stop stop-color="#B1E373"/>
<stop offset="1" stop-color="#67B444"/>
</linearGradient>
<linearGradient id="paint5_linear_3103_20685" x1="-4.79443" y1="28.6424" x2="12.3576" y2="0.976081" gradientUnits="userSpaceOnUse">
<stop stop-color="#B1E373"/>
<stop offset="1" stop-color="#67B444"/>
</linearGradient>
<linearGradient id="paint6_linear_3103_20685" x1="-1.80681" y1="30.4958" x2="15.3482" y2="2.82952" gradientUnits="userSpaceOnUse">
<stop stop-color="#B1E373"/>
<stop offset="1" stop-color="#67B444"/>
</linearGradient>
<linearGradient id="paint7_linear_3103_20685" x1="31.9365" y1="26.1076" x2="20.0838" y2="-1.31005" gradientUnits="userSpaceOnUse">
<stop stop-color="#1488CC"/>
<stop offset="1" stop-color="#0C4DC1"/>
</linearGradient>
<linearGradient id="paint8_linear_3103_20685" x1="25.6165" y1="28.8397" x2="13.7667" y2="1.41898" gradientUnits="userSpaceOnUse">
<stop stop-color="#1488CC"/>
<stop offset="1" stop-color="#0C4DC1"/>
</linearGradient>
<linearGradient id="paint9_linear_3103_20685" x1="32.7931" y1="25.7371" x2="20.9434" y2="-1.68061" gradientUnits="userSpaceOnUse">
<stop stop-color="#1488CC"/>
<stop offset="1" stop-color="#0C4DC1"/>
</linearGradient>
<linearGradient id="paint10_linear_3103_20685" x1="25.4622" y1="28.9055" x2="13.6124" y2="1.48785" gradientUnits="userSpaceOnUse">
<stop stop-color="#1488CC"/>
<stop offset="1" stop-color="#0C4DC1"/>
</linearGradient>
<linearGradient id="paint11_linear_3103_20685" x1="19.1193" y1="31.6465" x2="7.26953" y2="4.22879" gradientUnits="userSpaceOnUse">
<stop stop-color="#1488CC"/>
<stop offset="1" stop-color="#0C4DC1"/>
</linearGradient>
<linearGradient id="paint12_linear_3103_20685" x1="28.3458" y1="27.6589" x2="16.4961" y2="0.241251" gradientUnits="userSpaceOnUse">
<stop stop-color="#1488CC"/>
<stop offset="1" stop-color="#0C4DC1"/>
</linearGradient>
<linearGradient id="paint13_linear_3103_20685" x1="25.5989" y1="28.8458" x2="13.7491" y2="1.42805" gradientUnits="userSpaceOnUse">
<stop stop-color="#1488CC"/>
<stop offset="1" stop-color="#0C4DC1"/>
</linearGradient>
</defs>
</svg>
