<svg width="54" height="48" viewBox="0 0 54 48" fill="none" xmlns="http://www.w3.org/2000/svg">
<path d="M38.0526 18.5264H53.2105V47.1579H1V18.5264H16.1579" stroke="white"/>
<path d="M50.6822 26.9475L43.9453 32.0001L50.6822 37.8949" stroke="white"/>
<path d="M28.7891 44.6317L38.8943 37.0527L47.3154 44.6317" stroke="white"/>
<path d="M27.1053 31.1578C26.78 31.1557 26.5179 30.8557 26.4316 30.4841C24.4105 21.7263 17 19.0315 17 10.9473C17 5.3452 21.5474 0.842041 27.1053 0.842041C32.6632 0.842041 37.2105 5.3452 37.2105 10.9473C37.2105 19.0315 29.8 21.7263 27.7789 30.4841C27.6926 30.8557 27.4305 31.1557 27.1053 31.1578V31.1578Z" stroke="white"/>
<path d="M27.1028 14.3157C28.9631 14.3157 30.4712 12.8076 30.4712 10.9473C30.4712 9.08695 28.9631 7.57886 27.1028 7.57886C25.2425 7.57886 23.7344 9.08695 23.7344 10.9473C23.7344 12.8076 25.2425 14.3157 27.1028 14.3157Z" stroke="white"/>
<path d="M47.315 21.0525L24.5781 38.7367L8.57812 21.0525" stroke="white"/>
<path d="M16.9988 44.6315L19.5251 42.9473L13.6303 36.2104L4.36719 43.7894" stroke="white"/>
<path d="M3.52344 24.4209L10.2603 31.9998L3.52344 37.0525" stroke="white"/>
</svg>
