<svg width="22" height="21" viewBox="0 0 22 21" fill="none" xmlns="http://www.w3.org/2000/svg">
<path d="M17.4286 20H21V17.9643C21 16.0905 19.401 14.5714 17.4286 14.5714M12.4286 5.06877C12.4286 7.31609 10.51 9.13755 8.14286 9.13755C5.77571 9.13755 3.85714 7.31609 3.85714 5.06877C3.85714 2.82145 5.77571 1 8.14286 1C10.51 1 12.4286 2.82145 12.4286 5.06877ZM15.2857 19.9876H1C1 19.024 1 18.1072 1 17.2771C1 15.0285 2.91878 13.2063 5.28571 13.2063H11C13.3669 13.2063 15.2857 15.0285 15.2857 17.2771C15.2857 18.1072 15.2857 19.024 15.2857 19.9876ZM16.7143 11.8571C15.1363 11.8571 13.8571 10.6419 13.8571 9.14286C13.8571 7.6438 15.1363 6.42857 16.7143 6.42857C18.2922 6.42857 19.5714 7.6438 19.5714 9.14286C19.5714 10.6419 18.2922 11.8571 16.7143 11.8571Z" stroke="#106AC6" stroke-width="1.4"/>
</svg>
