<svg width="20" height="20" viewBox="0 0 20 20" fill="none" xmlns="http://www.w3.org/2000/svg">
<path d="M13.8571 19H13.3571C13.3571 19.2022 13.479 19.3845 13.6658 19.4619C13.8526 19.5393 14.0677 19.4966 14.2107 19.3536L13.8571 19ZM13.8571 13.8571V13.3571C13.581 13.3571 13.3571 13.581 13.3571 13.8571H13.8571ZM19 13.8571L19.3536 14.2107C19.4966 14.0677 19.5393 13.8526 19.4619 13.6658C19.3845 13.479 19.2022 13.3571 19 13.3571V13.8571ZM4.85714 6.78571V6.28571H4.35714V6.78571H4.85714ZM4.85714 10H4.35714V10.5H4.85714V10ZM8.07143 10V10.5H8.57143V10H8.07143ZM8.07143 6.78571H8.57143V6.28571H8.07143V6.78571ZM2.28571 1.5H17.7143V0.5H2.28571V1.5ZM1.5 17.7143V2.28571H0.5V17.7143H1.5ZM18.5 2.28571V13.3246H19.5V2.28571H18.5ZM13.3246 18.5H2.28571V19.5H13.3246V18.5ZM18.2699 13.8802L13.8802 18.2699L14.5873 18.977L18.977 14.5873L18.2699 13.8802ZM13.3246 19.5C13.7982 19.5 14.2524 19.3119 14.5873 18.977L13.8802 18.2699C13.7328 18.4172 13.533 18.5 13.3246 18.5V19.5ZM18.5 13.3246C18.5 13.533 18.4172 13.7328 18.2699 13.8802L18.977 14.5873C19.3119 14.2524 19.5 13.7982 19.5 13.3246H18.5ZM0.5 17.7143C0.5 18.7005 1.29949 19.5 2.28571 19.5V18.5C1.85178 18.5 1.5 18.1482 1.5 17.7143H0.5ZM17.7143 1.5C18.1482 1.5 18.5 1.85178 18.5 2.28571H19.5C19.5 1.29949 18.7005 0.5 17.7143 0.5V1.5ZM2.28571 0.5C1.29949 0.5 0.5 1.29949 0.5 2.28571H1.5C1.5 1.85178 1.85178 1.5 2.28571 1.5V0.5ZM14.3571 19V13.8571H13.3571V19H14.3571ZM13.8571 14.3571H19V13.3571H13.8571V14.3571ZM18.6464 13.5036L13.5036 18.6464L14.2107 19.3536L19.3536 14.2107L18.6464 13.5036ZM4.21429 4.71429H15.7857V3.71429H4.21429V4.71429ZM4.35714 6.78571V10H5.35714V6.78571H4.35714ZM4.85714 10.5H8.07143V9.5H4.85714V10.5ZM8.57143 10V6.78571H7.57143V10H8.57143ZM8.07143 6.28571H4.85714V7.28571H8.07143V6.28571ZM10 7.92857H15.7857V6.92857H10V7.92857ZM10 10.5H15.7857V9.5H10V10.5ZM4.21429 13.7143H8.71429V12.7143H4.21429V13.7143ZM4.21429 16.2857H8.71429V15.2857H4.21429V16.2857Z" fill="#106AC6"/>
</svg>
