<svg width="20" height="20" viewBox="0 0 20 20" fill="none" xmlns="http://www.w3.org/2000/svg">
<path d="M1 10L0.646447 9.64645C0.451184 9.84171 0.451184 10.1583 0.646447 10.3536L1 10ZM10 19L9.64645 19.3536C9.84171 19.5488 10.1583 19.5488 10.3536 19.3536L10 19ZM19 10L19.3536 10.3536C19.4473 10.2598 19.5 10.1326 19.5 10H19ZM10 1V0.5C9.86739 0.5 9.74021 0.552678 9.64645 0.646447L10 1ZM0.646447 10.3536L9.64645 19.3536L10.3536 18.6464L1.35355 9.64645L0.646447 10.3536ZM10.3536 19.3536L19.3536 10.3536L18.6464 9.64645L9.64645 18.6464L10.3536 19.3536ZM19.5 10V2.28571H18.5V10H19.5ZM17.7143 0.5H10V1.5H17.7143V0.5ZM9.64645 0.646447L0.646447 9.64645L1.35355 10.3536L10.3536 1.35355L9.64645 0.646447ZM19.5 2.28571C19.5 1.29949 18.7005 0.5 17.7143 0.5V1.5C18.1482 1.5 18.5 1.85178 18.5 2.28571H19.5ZM13.8571 6.92857C13.4232 6.92857 13.0714 6.5768 13.0714 6.14286H12.0714C12.0714 7.12908 12.8709 7.92857 13.8571 7.92857V6.92857ZM14.6429 6.14286C14.6429 6.5768 14.2911 6.92857 13.8571 6.92857V7.92857C14.8434 7.92857 15.6429 7.12908 15.6429 6.14286H14.6429ZM13.8571 5.35714C14.2911 5.35714 14.6429 5.70892 14.6429 6.14286H15.6429C15.6429 5.15663 14.8434 4.35714 13.8571 4.35714V5.35714ZM13.8571 4.35714C12.8709 4.35714 12.0714 5.15663 12.0714 6.14286H13.0714C13.0714 5.70892 13.4232 5.35714 13.8571 5.35714V4.35714Z" fill="#106AC6"/>
</svg>
