<svg width="20" height="16" viewBox="0 0 20 16" fill="none" xmlns="http://www.w3.org/2000/svg">
<path d="M17 15H19.5V13.5C19.5 12.1193 18.3807 11 17 11M13.5 3.99804C13.5 5.65396 12.157 6.99609 10.5 6.99609C8.843 6.99609 7.5 5.65396 7.5 3.99804C7.5 2.34212 8.843 1 10.5 1C12.157 1 13.5 2.34212 13.5 3.99804ZM15.5 14.9909H5.5C5.5 14.2808 5.5 13.6053 5.5 12.9936C5.5 11.3368 6.84315 9.99414 8.5 9.99414H12.5C14.1569 9.99414 15.5 11.3368 15.5 12.9936C15.5 13.6053 15.5 14.2808 15.5 14.9909ZM16.5 9C15.3954 9 14.5 8.10457 14.5 7C14.5 5.89543 15.3954 5 16.5 5C17.6046 5 18.5 5.89543 18.5 7C18.5 8.10457 17.6046 9 16.5 9Z" stroke="#106AC6"/>
<path d="M3.5 15H1V13.5C1 12.1193 2.11929 11 3.5 11M4 9C5.10457 9 6 8.10457 6 7C6 5.89543 5.10457 5 4 5C2.89543 5 2 5.89543 2 7C2 8.10457 2.89543 9 4 9Z" stroke="#106AC6"/>
</svg>
