<svg width="20" height="20" viewBox="0 0 20 20" fill="none" xmlns="http://www.w3.org/2000/svg">
<path d="M6.54286 11.6286L6.24286 11.2286L5.44286 11.8286L5.74286 12.2286L6.54286 11.6286ZM14.2571 12.2286L14.5571 11.8286L13.7571 11.2286L13.4571 11.6286L14.2571 12.2286ZM10 18.5C5.30558 18.5 1.5 14.6944 1.5 10H0.5C0.5 15.2467 4.7533 19.5 10 19.5V18.5ZM18.5 10C18.5 14.6944 14.6944 18.5 10 18.5V19.5C15.2467 19.5 19.5 15.2467 19.5 10H18.5ZM10 1.5C14.6944 1.5 18.5 5.30558 18.5 10H19.5C19.5 4.7533 15.2467 0.5 10 0.5V1.5ZM10 0.5C4.7533 0.5 0.5 4.7533 0.5 10H1.5C1.5 5.30558 5.30558 1.5 10 1.5V0.5ZM5.5 7.92857H6.78571V6.92857H5.5V7.92857ZM13.2143 7.92857H14.5V6.92857H13.2143V7.92857ZM13.4571 11.6286C11.7286 13.9333 8.27143 13.9333 6.54286 11.6286L5.74286 12.2286C7.87143 15.0667 12.1286 15.0667 14.2571 12.2286L13.4571 11.6286Z" fill="#106AC6"/>
</svg>
