<svg width="20" height="20" viewBox="0 0 20 20" fill="none" xmlns="http://www.w3.org/2000/svg">
<path d="M6.66406 7.33317H7.9974M11.9974 12.6665H13.3307M13.3307 6.6665L6.66406 13.3332M9.066 1.0523L7.56064 2.55766C7.31362 2.80468 6.97859 2.94346 6.62925 2.94346H4.25821C3.53074 2.94346 2.94102 3.53318 2.94102 4.26065V6.63169C2.94102 6.98103 2.80224 7.31606 2.55522 7.56308L1.04986 9.06844C0.535464 9.58284 0.535464 10.4168 1.04986 10.9312L2.55522 12.4366C2.80224 12.6836 2.94102 13.0186 2.94102 13.368V15.739C2.94102 16.4665 3.53074 17.0562 4.25821 17.0562H6.62925C6.97859 17.0562 7.31362 17.195 7.56064 17.442L9.066 18.9474C9.5804 19.4618 10.4144 19.4618 10.9288 18.9474L12.4341 17.442C12.6812 17.195 13.0162 17.0562 13.3655 17.0562H15.7366C16.464 17.0562 17.0538 16.4665 17.0538 15.739V13.368C17.0538 13.0186 17.1925 12.6836 17.4396 12.4366L18.9449 10.9312C19.4593 10.4168 19.4593 9.58284 18.9449 9.06844L17.4396 7.56308C17.1925 7.31606 17.0538 6.98103 17.0538 6.63169V4.26065C17.0538 3.53318 16.464 2.94346 15.7366 2.94346H13.3655C13.0162 2.94346 12.6812 2.80468 12.4341 2.55766L10.9288 1.0523C10.4144 0.537905 9.5804 0.537905 9.066 1.0523Z" stroke="#106AC6"/>
</svg>
