<svg width="25" height="21" viewBox="0 0 25 21" fill="none" xmlns="http://www.w3.org/2000/svg">
<path d="M16.7109 16.6621V10.1194" stroke="#106AC6" stroke-linecap="round" stroke-linejoin="round"/>
<path d="M15.8372 3.78252C15.5264 3.57647 15.1549 3.45825 14.7529 3.45825H2.9375" stroke="#106AC6" stroke-linecap="round" stroke-linejoin="round"/>
<path d="M13.8798 10.4231C14.5993 9.70362 14.6094 8.5383 13.9035 7.83234C13.1975 7.12977 12.0322 7.1399 11.3127 7.85937L10.8669 8.30185L10.4244 7.85937C9.70491 7.1399 8.53958 7.12977 7.83363 7.83234C7.12768 8.5383 7.14119 9.70362 7.86065 10.4231L10.8702 13.4259" stroke="#106AC6" stroke-linecap="round" stroke-linejoin="round"/>
<path d="M22.6959 5.32654C22.4628 5.61703 22.1791 5.93791 21.9832 6.12031C20.0106 7.96119 17.7137 8.70768 16.8557 7.78893C15.9978 6.87018 16.8996 4.63072 18.8722 2.78984C20.8449 0.948959 23.9997 1.12122 23.9997 1.12122C23.9997 1.12122 23.9288 2.25953 23.5606 3.47215L21.8143 3.63428" stroke="#106AC6" stroke-linecap="round" stroke-linejoin="round"/>
<path d="M20.232 4.75854L13.2266 11.0142" stroke="#106AC6" stroke-linecap="round" stroke-linejoin="round"/>
<path d="M4.82221 6.41049H1.26881C0.826321 5.65725 0.931032 4.67432 1.57618 4.02917C2.34294 3.26241 3.58595 3.26241 4.3527 4.02917C4.70399 4.38045 4.8999 4.83307 4.9303 5.29583V18.2631C4.9303 19.3473 5.80852 20.2289 6.89616 20.2289C7.9838 20.2289 8.85864 19.3473 8.85864 18.2631C8.85864 17.6247 8.55464 17.0572 8.08175 16.6991H18.6508C19.1237 17.0572 19.4277 17.628 19.4277 18.2664C19.4277 19.3507 18.5494 20.2289 17.4652 20.2289H6.9502" stroke="#106AC6" stroke-linecap="round" stroke-linejoin="round"/>
</svg>
