<svg width="39" height="39" viewBox="0 0 39 39" fill="none" xmlns="http://www.w3.org/2000/svg">
<path fill-rule="evenodd" clip-rule="evenodd" d="M18.1071 4.17857V0H20.8929V4.17857H18.1071ZM25.9545 5.53495L28.0438 1.9162L30.4563 3.30906L28.3671 6.92781L25.9545 5.53495ZM19.5 29.25C24.8848 29.25 29.25 24.8848 29.25 19.5C29.25 14.1152 24.8848 9.75 19.5 9.75C14.1152 9.75 9.75 14.1152 9.75 19.5C9.75 24.8848 14.1152 29.25 19.5 29.25ZM19.5 32.0357C26.4233 32.0357 32.0357 26.4233 32.0357 19.5C32.0357 12.5767 26.4233 6.96429 19.5 6.96429C12.5767 6.96429 6.96429 12.5767 6.96429 19.5C6.96429 26.4233 12.5767 32.0357 19.5 32.0357ZM34.8214 18.1071H39V20.8929H34.8214V18.1071ZM35.691 8.54375L32.0723 10.633L33.4651 13.0455L37.0839 10.9563L35.691 8.54375ZM8.54375 3.30906L10.633 6.9278L13.0455 5.53495L10.9563 1.9162L8.54375 3.30906ZM5.53486 13.0455L1.91611 10.9563L3.30897 8.54375L6.92772 10.633L5.53486 13.0455ZM18.1071 34.8214V39H20.8929V34.8214H18.1071ZM4.17857 18.1071H0V20.8929H4.17857V18.1071ZM1.91604 28.0438L5.53479 25.9545L6.92765 28.367L3.3089 30.4563L1.91604 28.0438ZM10.6331 32.0724L8.54384 35.6912L10.9563 37.084L13.0456 33.4653L10.6331 32.0724ZM28.0438 37.084L25.9545 33.4653L28.367 32.0724L30.4563 35.6912L28.0438 37.084ZM32.0724 28.367L35.6911 30.4563L37.084 28.0438L33.4652 25.9545L32.0724 28.367Z" fill="white"/>
</svg>
